<svg width="269" height="80" viewBox="0 0 269 80" fill="none" xmlns="http://www.w3.org/2000/svg">
<g filter="url(#filter0_d_0_1)">
<path d="M25 71.9C20.9333 71.9 17.3 71.1333 14.1 69.6C10.9 68 8.4 65.8 6.6 63C4.86667 60.1333 4 56.9 4 53.3C4 50.5667 4.63333 47.4333 5.9 43.9C6.23333 42.9667 6.73333 42.2333 7.4 41.7C8.06667 41.1 8.83333 40.8 9.7 40.8C10.5667 40.8 11.3 41.1 11.9 41.7C12.5 42.2333 12.8 42.9333 12.8 43.8C12.8 44.4667 12.5667 45.5 12.1 46.9C11.3667 49.7 11 51.8667 11 53.4C11 56.9333 12.3 59.8667 14.9 62.2C17.5667 64.4667 20.9333 65.6 25 65.6C29.2667 65.6 32.7333 64.3333 35.4 61.8C38.1333 59.2667 39.5 56.0333 39.5 52.1C39.5 49.9 38.9333 47.9 37.8 46.1C36.6667 44.3 35.3333 42.7333 33.8 41.4C32.3333 40.0667 30.0667 38.2 27 35.8C23.4667 33.0667 20.7 30.8 18.7 29C16.7667 27.2 15.0667 25.1 13.6 22.7C12.2 20.3 11.5 17.6333 11.5 14.7C11.5 11.6333 12.2667 9 13.8 6.8C15.4 4.53333 17.4333 2.83333 19.9 1.7C22.4333 0.566664 25.1 -3.8147e-06 27.9 -3.8147e-06C31.9667 -3.8147e-06 35.4333 1.16666 38.3 3.5C41.2333 5.83333 42.7 9.13333 42.7 13.4C42.7 15.2667 42.3667 16.7333 41.7 17.8C41.1 18.8667 40.2333 19.4 39.1 19.4C38.1667 19.4 37.4 19.1667 36.8 18.7C36.2667 18.1667 36 17.4667 36 16.6C36 16.1333 36.0333 15.7 36.1 15.3C36.1667 14.8333 36.2 14.3 36.2 13.7C36.2 11.3667 35.3667 9.56666 33.7 8.3C32.0333 6.96666 30.0333 6.3 27.7 6.3C25.1667 6.3 23 7.06667 21.2 8.6C19.4 10.0667 18.5 12.2 18.5 15C18.5 17.4667 19.3667 19.7 21.1 21.7C22.9 23.7 25.6 26.1 29.2 28.9L31.1 30.4L33 31.9C36 34.2333 38.3667 36.2667 40.1 38C41.9 39.7333 43.4 41.8 44.6 44.2C45.8667 46.5333 46.5 49.1667 46.5 52.1C46.5 55.7667 45.5333 59.1333 43.6 62.2C41.7333 65.2 39.1667 67.5667 35.9 69.3C32.6333 71.0333 29 71.9 25 71.9ZM71.0039 71.9C67.1372 71.9 63.8706 71 61.2039 69.2C58.6039 67.3333 56.6372 64.9333 55.3039 62C54.0372 59 53.4039 55.7667 53.4039 52.3C53.4039 48.6333 54.1372 45.1 55.6039 41.7C57.0706 38.3 59.1372 35.5333 61.8039 33.4C64.5372 31.2667 67.6372 30.2 71.1039 30.2C74.5706 30.2 77.3706 31.2 79.5039 33.2C81.6372 35.2 82.7039 37.7333 82.7039 40.8C82.7039 42 82.3706 42.9333 81.7039 43.6C81.1039 44.2667 80.3706 44.6 79.5039 44.6C78.6372 44.6 77.9039 44.3 77.3039 43.7C76.7039 43.1 76.3706 42.2667 76.3039 41.2C76.2372 39.7333 75.7372 38.5667 74.8039 37.7C73.9372 36.8333 72.7372 36.4 71.2039 36.4C69.0039 36.4 67.0372 37.1667 65.3039 38.7C63.6372 40.2333 62.3372 42.2333 61.4039 44.7C60.4706 47.1667 60.0039 49.7333 60.0039 52.4C60.0039 56.1333 60.9706 59.3 62.9039 61.9C64.8372 64.4333 67.6372 65.7 71.3039 65.7C75.4372 65.7 79.2039 64.1333 82.6039 61C86.0706 57.8 88.9039 53.3667 91.1039 47.7C91.7039 46.2333 92.5706 45.5 93.7039 45.5C94.3706 45.5 94.9372 45.7667 95.4039 46.3C95.9372 46.7667 96.2039 47.4 96.2039 48.2C96.2039 48.6667 96.1039 49.2 95.9039 49.8C93.3039 56.8667 89.8372 62.3333 85.5039 66.2C81.1706 70 76.3372 71.9 71.0039 71.9ZM114.22 71.4C110.754 71.4 107.82 70.1333 105.42 67.6C103.087 65 101.92 61.7 101.92 57.7C101.92 51.3 104.82 43.6667 110.62 34.8L110.42 37.6C110.287 37.7333 109.954 37.8 109.42 37.8C108.42 37.8 107.087 37.6 105.42 37.2C103.754 36.7333 102.387 36.2333 101.32 35.7C100.32 35.1 100.087 34.5667 100.62 34.1L101.92 32.6C100.12 38.1333 98.487 42.8333 97.0203 46.7L95.9203 49.8C95.4536 51.0667 94.6203 51.7 93.4203 51.7C92.7536 51.7 92.1536 51.4667 91.6203 51C91.087 50.4667 90.8203 49.8 90.8203 49C90.8203 48.6 90.9203 48.1667 91.1203 47.7C92.2536 44.9 93.387 41.8667 94.5203 38.6C95.6536 35.2667 96.287 33.0667 96.4203 32C96.2203 30.8 96.1203 30 96.1203 29.6C96.1203 28.5333 96.4203 27.7 97.0203 27.1C97.6203 26.4333 98.3203 26.1 99.1203 26.1C99.7203 26.1 100.287 26.3 100.82 26.7C101.354 27.0333 101.754 27.5333 102.02 28.2C102.554 29.6 103.487 30.6667 104.82 31.4C106.154 32.1333 107.554 32.5 109.02 32.5C109.754 32.5 110.787 32.3333 112.12 32C113.054 31.7333 113.754 31.6 114.22 31.6C115.02 31.6 115.72 31.9 116.32 32.5C116.92 33.0333 117.22 33.7667 117.22 34.7C117.22 35.5667 116.854 36.5667 116.12 37.7C111.054 45.2333 108.52 51.7333 108.52 57.2C108.52 59.7333 109.12 61.7 110.32 63.1C111.52 64.5 113.02 65.2 114.82 65.2C119.954 65.2 124.82 59.3667 129.42 47.7C129.687 46.9667 130.054 46.4333 130.52 46.1C131.054 45.7 131.587 45.5 132.12 45.5C132.787 45.5 133.354 45.7333 133.82 46.2C134.287 46.6667 134.52 47.3 134.52 48.1C134.52 48.6333 134.42 49.2 134.22 49.8C131.954 56 129.154 61.1667 125.82 65.3C122.554 69.3667 118.687 71.4 114.22 71.4ZM139.702 71.4C136.368 71.4 133.735 70.1333 131.802 67.6C129.935 65 129.002 60.9333 129.002 55.4C129.002 52.9333 129.202 49.6333 129.602 45.5C130.068 41.3667 130.568 37.8333 131.102 34.9C131.368 33.6333 131.835 32.7 132.502 32.1C133.168 31.4333 133.935 31.1 134.802 31.1C135.735 31.1 136.502 31.5 137.102 32.3C137.768 33.0333 138.002 34 137.802 35.2C136.335 44.8667 135.602 51.8 135.602 56C135.602 62.1333 137.135 65.2 140.202 65.2C142.202 65.2 144.268 63.8 146.402 61C148.535 58.2 150.868 53.7667 153.402 47.7C154.002 46.3667 154.868 45.7 156.002 45.7C156.668 45.7 157.235 45.9667 157.702 46.5C158.235 46.9667 158.502 47.6 158.502 48.4C158.502 48.8 158.402 49.2667 158.202 49.8C155.135 57.6 152.068 63.1667 149.002 66.5C146.002 69.7667 142.902 71.4 139.702 71.4ZM136.202 25.9C135.135 25.9 134.202 25.5333 133.402 24.8C132.668 24 132.302 23.0667 132.302 22C132.302 20.8667 132.668 19.9333 133.402 19.2C134.202 18.4667 135.135 18.1 136.202 18.1C137.335 18.1 138.268 18.4667 139.002 19.2C139.735 19.9333 140.102 20.8667 140.102 22C140.102 23.0667 139.735 24 139.002 24.8C138.268 25.5333 137.335 25.9 136.202 25.9ZM169.525 71.2C164.725 71.2 160.792 68.9667 157.725 64.5C154.658 60.0333 153.125 53.2 153.125 44C153.125 35.2 154.092 27.4667 156.025 20.8C158.025 14.1333 160.792 9 164.325 5.4C167.858 1.8 171.892 -3.8147e-06 176.425 -3.8147e-06C179.692 -3.8147e-06 182.358 0.999997 184.425 3C186.492 4.93333 187.525 7.36666 187.525 10.3C187.525 13.2333 186.558 16.0333 184.625 18.7C182.692 21.3 179.958 23.4333 176.425 25.1C172.892 26.7667 168.892 27.6 164.425 27.6C160.558 27.6 156.992 27.0333 153.725 25.9C152.792 25.5667 152.092 25.1333 151.625 24.6C151.225 24 151.025 23.3667 151.025 22.7C151.025 21.9 151.292 21.2333 151.825 20.7C152.425 20.1 153.158 19.8 154.025 19.8C154.625 19.8 155.425 19.9667 156.425 20.3C158.892 21.1667 161.792 21.6 165.125 21.6C168.258 21.6 171.025 21.0667 173.425 20C175.892 18.9333 177.758 17.5667 179.025 15.9C180.358 14.1667 181.025 12.4667 181.025 10.8C181.025 9.46666 180.592 8.36666 179.725 7.49999C178.858 6.63333 177.692 6.2 176.225 6.2C173.158 6.2 170.358 7.8 167.825 11C165.358 14.2 163.392 18.6 161.925 24.2C160.458 29.8 159.725 36.1 159.725 43.1C159.725 50.7 160.692 56.2667 162.625 59.8C164.625 63.2667 167.058 65 169.925 65C172.058 65 173.992 64.0333 175.725 62.1C177.458 60.1667 178.792 57.7667 179.725 54.9C180.725 52.0333 181.225 49.2333 181.225 46.5C181.225 43.5667 180.625 41.3667 179.425 39.9C178.225 38.3667 176.725 37.6 174.925 37.6C173.258 37.6 171.858 38.3667 170.725 39.9C169.592 41.3667 169.025 43.3 169.025 45.7C169.025 47.9667 169.692 50 171.025 51.8C172.358 53.6 174.125 55 176.325 56C178.525 57 180.825 57.5 183.225 57.5C186.225 57.5 188.992 56.7 191.525 55.1C194.125 53.5 196.158 51.0333 197.625 47.7C198.225 46.4333 199.092 45.8 200.225 45.8C200.892 45.8 201.458 46.0667 201.925 46.6C202.458 47.0667 202.725 47.7 202.725 48.5C202.725 48.8333 202.625 49.2667 202.425 49.8C200.625 54.2667 197.958 57.6333 194.425 59.9C190.958 62.1 187.125 63.2 182.925 63.2C179.458 63.2 176.192 62.4667 173.125 61C170.058 59.5333 167.558 57.4667 165.625 54.8C163.758 52.1333 162.825 49.0667 162.825 45.6C162.825 41.3333 163.958 37.9 166.225 35.3C168.492 32.7 171.458 31.4 175.125 31.4C178.925 31.4 181.992 32.7667 184.325 35.5C186.658 38.2333 187.825 42.1 187.825 47.1C187.825 51.1667 187.025 55.0667 185.425 58.8C183.825 62.4667 181.625 65.4667 178.825 67.8C176.025 70.0667 172.925 71.2 169.525 71.2ZM212.363 70.9C207.83 70.9 204.197 68.7333 201.463 64.4C198.797 60 197.463 53.5667 197.463 45.1C197.463 30.5667 198.897 19.5333 201.763 12C204.63 4.46666 208.897 0.699999 214.563 0.699999C217.097 0.699999 219.13 1.66667 220.663 3.6C222.263 5.53333 223.063 8.2 223.063 11.6C223.063 23.5333 216.663 36.3333 203.863 50L200.763 45.1C205.83 39.3 209.697 33.5333 212.363 27.8C215.097 22 216.463 16.6 216.463 11.6C216.463 8.46666 215.53 6.9 213.663 6.9C211.797 6.9 210.13 8.56666 208.663 11.9C207.263 15.1667 206.13 19.7333 205.263 25.6C204.463 31.4 204.063 37.9 204.063 45.1C204.063 51.3667 204.797 56.2 206.263 59.6C207.797 63 209.83 64.7 212.363 64.7C216.43 64.7 220.763 59.0333 225.363 47.7C225.963 46.2333 226.83 45.5 227.963 45.5C228.63 45.5 229.197 45.8 229.663 46.4C230.197 46.9333 230.463 47.6 230.463 48.4C230.463 48.8 230.363 49.2667 230.163 49.8C224.963 63.8667 219.03 70.9 212.363 70.9ZM243.098 71.7C239.098 71.7 235.698 70.7667 232.898 68.9C230.164 66.9667 228.098 64.4667 226.698 61.4C225.298 58.2667 224.598 54.9333 224.598 51.4C224.598 47.7333 225.331 44.3 226.798 41.1C228.264 37.8333 230.364 35.2333 233.098 33.3C235.831 31.3 239.031 30.3 242.698 30.3C246.498 30.3 249.564 31.4 251.898 33.6C254.298 35.7333 255.498 38.5 255.498 41.9C255.498 45.6333 254.164 48.7667 251.498 51.3C248.831 53.7667 245.331 55 240.998 55C237.864 55 234.964 54.4333 232.298 53.3C229.698 52.1 227.964 50.6667 227.098 49L228.798 45C230.264 46.5333 232.064 47.6667 234.198 48.4C236.398 49.1333 238.531 49.5 240.598 49.5C243.198 49.5 245.231 48.8 246.698 47.4C248.231 45.9333 248.998 44.1333 248.998 42C248.998 40.4667 248.431 39.1667 247.298 38.1C246.231 37.0333 244.698 36.5 242.698 36.5C240.431 36.5 238.398 37.2 236.598 38.6C234.864 40 233.531 41.8333 232.598 44.1C231.664 46.3 231.198 48.6333 231.198 51.1C231.198 55.0333 232.231 58.4333 234.298 61.3C236.364 64.1 239.364 65.5 243.298 65.5C249.964 65.5 255.498 62.0333 259.898 55.1C260.564 53.9667 261.464 53.4 262.598 53.4C263.264 53.4 263.831 53.6333 264.298 54.1C264.764 54.5 264.998 55.0667 264.998 55.8C264.998 56.4 264.798 57.1 264.398 57.9C261.864 62.1 258.831 65.4667 255.298 68C251.764 70.4667 247.698 71.7 243.098 71.7Z" fill="black"/>
</g>
<defs>
<filter id="filter0_d_0_1" x="0" y="0" width="268.998" height="79.9" filterUnits="userSpaceOnUse" color-interpolation-filters="sRGB">
<feFlood flood-opacity="0" result="BackgroundImageFix"/>
<feColorMatrix in="SourceAlpha" type="matrix" values="0 0 0 0 0 0 0 0 0 0 0 0 0 0 0 0 0 0 127 0" result="hardAlpha"/>
<feOffset dy="4"/>
<feGaussianBlur stdDeviation="2"/>
<feComposite in2="hardAlpha" operator="out"/>
<feColorMatrix type="matrix" values="0 0 0 0 0 0 0 0 0 0 0 0 0 0 0 0 0 0 0.25 0"/>
<feBlend mode="normal" in2="BackgroundImageFix" result="effect1_dropShadow_0_1"/>
<feBlend mode="normal" in="SourceGraphic" in2="effect1_dropShadow_0_1" result="shape"/>
</filter>
</defs>
</svg>
