<svg width="106" height="30" viewBox="0 0 106 30" fill="none" xmlns="http://www.w3.org/2000/svg">
<path d="M9.4 29.44C7.74667 29.44 6.26667 29.12 4.96 28.48C3.65333 27.8133 2.64 26.9067 1.92 25.76C1.2 24.5867 0.84 23.2667 0.84 21.8C0.84 20.6267 1.09333 19.32 1.6 17.88C1.76 17.4 2 17.04 2.32 16.8C2.66667 16.56 3.02667 16.44 3.4 16.44C3.82667 16.44 4.18667 16.5867 4.48 16.88C4.77333 17.1467 4.92 17.52 4.92 18C4.92 18.3733 4.81333 18.9067 4.6 19.6C4.33333 20.4533 4.2 21.16 4.2 21.72C4.2 23.08 4.69333 24.2133 5.68 25.12C6.66667 26 7.94667 26.44 9.52 26.44C11.1467 26.44 12.4667 25.9733 13.48 25.04C14.52 24.08 15.04 22.8933 15.04 21.48C15.04 20.3067 14.6933 19.3333 14 18.56C13.3333 17.76 12.2667 16.84 10.8 15.8L10.08 15.28C8.74667 14.32 7.66667 13.4667 6.84 12.72C6.01333 11.9733 5.30667 11.08 4.72 10.04C4.13333 8.97333 3.84 7.78667 3.84 6.48C3.84 5.44 4.12 4.46666 4.68 3.56C5.24 2.65333 6.02667 1.93333 7.04 1.4C8.05333 0.866665 9.18667 0.599998 10.44 0.599998C12.2267 0.599998 13.7467 1.10666 15 2.12C16.2533 3.10666 16.88 4.44 16.88 6.12C16.88 6.89333 16.7467 7.54667 16.48 8.08C16.2133 8.61333 15.7733 8.88 15.16 8.88C14.76 8.88 14.4 8.74667 14.08 8.48C13.7867 8.21333 13.64 7.88 13.64 7.48C13.64 7.29333 13.6533 7.10667 13.68 6.92C13.7067 6.70667 13.72 6.49333 13.72 6.28C13.72 5.56 13.4 4.93333 12.76 4.4C12.12 3.86667 11.3333 3.6 10.4 3.6C9.49333 3.6 8.73333 3.88 8.12 4.44C7.50667 4.97333 7.2 5.64 7.2 6.44C7.2 7.26667 7.41333 8.02666 7.84 8.72C8.26667 9.41333 8.8 10.0267 9.44 10.56C10.1067 11.0933 11 11.7733 12.12 12.6C13.64 13.72 14.7733 14.6 15.52 15.24C16.2667 15.88 16.9333 16.7067 17.52 17.72C18.1067 18.7333 18.4 19.9067 18.4 21.24C18.4 22.76 18.0133 24.1467 17.24 25.4C16.4667 26.6533 15.3867 27.64 14 28.36C12.64 29.08 11.1067 29.44 9.4 29.44ZM28.3897 29.32C26.1497 29.32 24.3497 28.6267 22.9897 27.24C21.6564 25.8533 20.9897 23.9733 20.9897 21.6C20.9897 19.84 21.323 18.28 21.9897 16.92C22.683 15.5333 23.5897 14.4667 24.7097 13.72C25.8564 12.9733 27.083 12.6 28.3897 12.6C29.8297 12.6 30.9897 13 31.8697 13.8C32.7764 14.5733 33.2297 15.5333 33.2297 16.68C33.2297 18.1733 32.7097 18.92 31.6697 18.92C30.6564 18.92 30.1497 18.3733 30.1497 17.28C30.1497 16.7467 29.9897 16.32 29.6697 16C29.3497 15.68 28.923 15.52 28.3897 15.52C27.6697 15.52 26.9897 15.76 26.3497 16.24C25.7097 16.72 25.1897 17.4133 24.7897 18.32C24.3897 19.2267 24.1897 20.3067 24.1897 21.56C24.1897 23.1067 24.563 24.3067 25.3097 25.16C26.083 25.9867 27.123 26.4 28.4297 26.4C30.083 26.4 31.603 25.68 32.9897 24.24C34.3764 22.8 35.4964 21 36.3497 18.84C36.6164 18.1467 37.0564 17.8 37.6697 17.8C38.0164 17.8 38.3097 17.92 38.5497 18.16C38.8164 18.4 38.9497 18.7067 38.9497 19.08C38.9497 19.2667 38.9097 19.4667 38.8297 19.68C37.603 22.9867 36.0697 25.4267 34.2297 27C32.3897 28.5467 30.443 29.32 28.3897 29.32ZM45.7088 29.12C44.2154 29.12 42.9888 28.64 42.0288 27.68C41.0954 26.72 40.6288 25.4933 40.6288 24C40.6288 22.7467 40.8688 21.44 41.3487 20.08C41.8288 18.6933 42.5221 16.9733 43.4288 14.92L44.2688 16.04C42.7488 16.1467 41.1488 15.7333 39.4688 14.8L40.7888 14.2C40.1488 16.12 39.4954 17.9467 38.8288 19.68C38.5621 20.3467 38.1221 20.68 37.5088 20.68C37.1621 20.68 36.8554 20.5733 36.5888 20.36C36.3488 20.12 36.2288 19.8133 36.2288 19.44C36.2288 19.2267 36.2688 19.0267 36.3488 18.84C37.0688 17.0267 37.6154 15.3867 37.9888 13.92C37.5888 13.6267 37.3888 13.16 37.3888 12.52C37.3888 12.0667 37.5221 11.6667 37.7888 11.32C38.0554 10.9733 38.4154 10.8 38.8688 10.8C39.1888 10.8 39.4421 10.8667 39.6288 11C39.8421 11.1067 40.0421 11.2933 40.2288 11.56C40.6021 12.0667 41.0288 12.4933 41.5088 12.84C42.0154 13.16 42.6954 13.32 43.5488 13.32C43.8688 13.32 44.2154 13.2667 44.5888 13.16C44.9621 13.0533 45.2288 13 45.3888 13C45.7888 13 46.1221 13.1467 46.3888 13.44C46.6554 13.7067 46.7888 14.0533 46.7888 14.48C46.7888 14.8533 46.6421 15.4 46.3488 16.12C46.2954 16.2533 46.2288 16.4267 46.1488 16.64C46.0688 16.8267 45.9621 17.0533 45.8288 17.32C45.1888 18.8133 44.6954 20.0667 44.3488 21.08C44.0021 22.0667 43.8288 22.9867 43.8288 23.84C43.8288 24.5867 44.0288 25.1733 44.4288 25.6C44.8288 26 45.3754 26.2 46.0688 26.2C47.8821 26.2 49.7488 23.7467 51.6688 18.84C51.9354 18.12 52.3754 17.76 52.9888 17.76C53.3354 17.76 53.6288 17.8933 53.8688 18.16C54.1354 18.4 54.2688 18.72 54.2688 19.12C54.2688 19.28 54.2288 19.4667 54.1488 19.68C52.9488 22.88 51.7088 25.2533 50.4288 26.8C49.1488 28.3467 47.5754 29.12 45.7088 29.12ZM56.0213 29.16C54.6346 29.16 53.5279 28.6133 52.7013 27.52C51.8746 26.4267 51.4613 24.7467 51.4613 22.48C51.4613 21.4933 51.5413 20.2133 51.7013 18.64C51.8879 17.0667 52.0879 15.68 52.3013 14.48C52.4079 13.92 52.6213 13.4933 52.9413 13.2C53.2613 12.88 53.6212 12.72 54.0213 12.72C54.4746 12.72 54.8479 12.9067 55.1413 13.28C55.4346 13.6533 55.5413 14.1733 55.4613 14.84C55.3279 15.9333 55.2346 16.6533 55.1813 17C55.0479 17.9867 54.9279 19.0133 54.8213 20.08C54.7146 21.12 54.6613 22 54.6613 22.72C54.6613 25.0667 55.1813 26.24 56.2213 26.24C56.9413 26.24 57.7413 25.5067 58.6213 24.04C59.5013 22.5733 60.3279 20.84 61.1013 18.84C61.2346 18.4667 61.4079 18.2 61.6213 18.04C61.8613 17.8533 62.1146 17.76 62.3813 17.76C62.7279 17.76 63.0346 17.8933 63.3013 18.16C63.5679 18.4 63.7013 18.72 63.7013 19.12C63.7013 19.28 63.6613 19.4667 63.5813 19.68C62.3013 22.9867 61.1146 25.4 60.0213 26.92C58.9279 28.4133 57.5946 29.16 56.0213 29.16ZM54.3413 10.72C53.8079 10.72 53.3546 10.5333 52.9813 10.16C52.6079 9.78667 52.4213 9.33333 52.4213 8.8C52.4213 8.26667 52.6079 7.82667 52.9813 7.48C53.3546 7.10666 53.8079 6.92 54.3413 6.92C54.8746 6.92 55.3146 7.10666 55.6613 7.48C56.0346 7.82667 56.2213 8.26667 56.2213 8.8C56.2213 9.33333 56.0346 9.78667 55.6613 10.16C55.3146 10.5333 54.8746 10.72 54.3413 10.72ZM67.9944 29.24C63.4344 29.24 61.1544 25.56 61.1544 18.2C61.1544 14.68 61.5544 11.5867 62.3544 8.92C63.1544 6.22667 64.2744 4.14666 65.7144 2.68C67.1544 1.18666 68.7944 0.439998 70.6344 0.439998C72.0744 0.439998 73.2077 0.866665 74.0344 1.72C74.8877 2.54667 75.3144 3.61333 75.3144 4.92C75.3144 6.09333 74.9677 7.17333 74.2744 8.16C73.6077 9.12 72.5544 9.90667 71.1144 10.52C69.6744 11.1067 67.8877 11.4 65.7544 11.4C63.941 11.4 62.541 11.2667 61.5544 11C61.1277 10.8933 60.8077 10.7067 60.5944 10.44C60.381 10.1467 60.2744 9.84 60.2744 9.52C60.2744 9.17333 60.3944 8.88 60.6344 8.64C60.901 8.37333 61.2344 8.24 61.6344 8.24C61.8477 8.24 62.1144 8.28 62.4344 8.36C63.501 8.62667 64.7677 8.76 66.2344 8.76C67.5144 8.76 68.6077 8.57333 69.5144 8.2C70.4477 7.82667 71.141 7.34666 71.5944 6.76C72.0744 6.17333 72.3144 5.57333 72.3144 4.96C72.3144 4.48 72.1677 4.09333 71.8744 3.8C71.581 3.50667 71.181 3.36 70.6744 3.36C69.501 3.36 68.4344 3.96 67.4744 5.16C66.5144 6.36 65.7544 8.06667 65.1944 10.28C64.6344 12.4667 64.3544 14.9867 64.3544 17.84C64.3544 20.8533 64.6877 23.0267 65.3544 24.36C66.0477 25.6667 66.9277 26.32 67.9944 26.32C68.8477 26.32 69.6077 25.96 70.2744 25.24C70.941 24.4933 71.461 23.5733 71.8344 22.48C72.2077 21.36 72.3944 20.2667 72.3944 19.2C72.3944 18.2133 72.1944 17.4 71.7944 16.76C71.3944 16.0933 70.8477 15.76 70.1544 15.76C69.4877 15.76 68.9277 16.0533 68.4744 16.64C68.0477 17.2267 67.8344 17.9733 67.8344 18.88C67.8344 20.0267 68.3144 21 69.2744 21.8C70.2344 22.6 71.541 23 73.1944 23C74.6077 23 75.7144 22.64 76.5144 21.92C77.341 21.2 78.0344 20.1733 78.5944 18.84C78.7544 18.4933 78.9544 18.24 79.1944 18.08C79.461 17.8933 79.7277 17.8 79.9944 17.8C80.3144 17.8 80.5944 17.92 80.8344 18.16C81.0744 18.3733 81.1944 18.6667 81.1944 19.04C81.1944 19.2267 81.1544 19.44 81.0744 19.68C80.4344 21.6267 79.421 23.1067 78.0344 24.12C76.6477 25.1333 75.0477 25.64 73.2344 25.64C71.7144 25.64 70.3277 25.3467 69.0744 24.76C67.821 24.1733 66.8344 23.36 66.1144 22.32C65.3944 21.28 65.0344 20.12 65.0344 18.84C65.0344 17.0267 65.5144 15.5867 66.4744 14.52C67.461 13.4267 68.7277 12.88 70.2744 12.88C72.0077 12.88 73.3277 13.5067 74.2344 14.76C75.141 16.0133 75.5944 17.5733 75.5944 19.44C75.5944 21.0133 75.2744 22.56 74.6344 24.08C74.021 25.5733 73.1277 26.8133 71.9544 27.8C70.8077 28.76 69.4877 29.24 67.9944 29.24ZM84.6553 29.16C82.7886 29.16 81.322 28.36 80.2553 26.76C79.1886 25.1333 78.6553 22.4267 78.6553 18.64C78.6553 12.0267 79.3086 7.38667 80.6153 4.72C81.9486 2.02667 83.6553 0.68 85.7353 0.68C86.802 0.68 87.6686 1.04 88.3353 1.76C89.0286 2.48 89.3753 3.46666 89.3753 4.72C89.3753 7.17333 88.682 9.78667 87.2953 12.56C85.9353 15.3067 84.0686 18.08 81.6953 20.88L79.8553 18.72C81.9886 16.2933 83.5753 13.9333 84.6153 11.64C85.682 9.34667 86.2153 7.22666 86.2153 5.28C86.2153 4.64 86.1486 4.2 86.0153 3.96C85.882 3.72 85.6686 3.6 85.3753 3.6C84.8953 3.6 84.3753 4.14666 83.8153 5.24C83.2553 6.30667 82.7753 8 82.3753 10.32C82.002 12.6133 81.8153 15.52 81.8153 19.04C81.8153 21.68 82.082 23.52 82.6153 24.56C83.1486 25.6 83.8686 26.12 84.7753 26.12C85.762 26.12 86.642 25.4667 87.4153 24.16C88.1886 22.8267 89.002 21.0533 89.8553 18.84C90.1486 18.0933 90.5886 17.72 91.1753 17.72C91.522 17.72 91.8153 17.8533 92.0553 18.12C92.322 18.36 92.4553 18.68 92.4553 19.08C92.4553 19.2667 92.4153 19.4667 92.3353 19.68C91.2153 22.7733 90.082 25.1333 88.9353 26.76C87.7886 28.36 86.362 29.16 84.6553 29.16ZM96.9844 29.24C94.771 29.24 92.9844 28.5333 91.6244 27.12C90.291 25.68 89.6244 23.7467 89.6244 21.32C89.6244 19.56 89.9577 18.0133 90.6244 16.68C91.291 15.3467 92.1844 14.32 93.3044 13.6C94.451 12.88 95.7044 12.52 97.0644 12.52C98.5844 12.52 99.811 12.9733 100.744 13.88C101.704 14.7867 102.184 15.9333 102.184 17.32C102.184 18.2533 101.931 19.1333 101.424 19.96C100.918 20.76 100.211 21.4133 99.3044 21.92C98.3977 22.4 97.3977 22.64 96.3044 22.64C95.291 22.64 94.331 22.48 93.4244 22.16C92.5444 21.84 91.611 21.32 90.6244 20.6L91.7844 18.52C92.2644 18.9733 92.9177 19.3333 93.7444 19.6C94.5977 19.84 95.4244 19.96 96.2244 19.96C97.0777 19.96 97.7577 19.72 98.2644 19.24C98.7977 18.76 99.0644 18.16 99.0644 17.44C99.0644 16.8267 98.891 16.3467 98.5444 16C98.1977 15.6267 97.731 15.44 97.1444 15.44C96.371 15.44 95.651 15.68 94.9844 16.16C94.3444 16.6133 93.8244 17.2933 93.4244 18.2C93.0244 19.08 92.8244 20.12 92.8244 21.32C92.8244 22.9467 93.211 24.1867 93.9844 25.04C94.7844 25.8933 95.891 26.32 97.3044 26.32C98.3977 26.32 99.371 26 100.224 25.36C101.078 24.72 101.891 23.8533 102.664 22.76C103.011 22.2533 103.424 22 103.904 22C104.251 22 104.544 22.12 104.784 22.36C105.051 22.6 105.184 22.92 105.184 23.32C105.184 23.6133 105.091 23.9067 104.904 24.2C102.798 27.56 100.158 29.24 96.9844 29.24Z" fill="white"/>
</svg>
