<svg width="140" height="39" viewBox="0 0 140 39" fill="none" xmlns="http://www.w3.org/2000/svg">
<path d="M11.55 38.1C9.35 38.1 7.38333 37.6667 5.65 36.8C3.91667 35.9333 2.55 34.7167 1.55 33.15C0.583333 31.5833 0.1 29.8167 0.1 27.85C0.1 26.1167 0.433333 24.4167 1.1 22.75C1.36667 22.05 1.75 21.5 2.25 21.1C2.78333 20.7 3.35 20.5 3.95 20.5C4.68333 20.5 5.28333 20.75 5.75 21.25C6.25 21.75 6.5 22.3833 6.5 23.15C6.5 23.6833 6.38333 24.3333 6.15 25.1C5.81667 26.2333 5.65 27.2167 5.65 28.05C5.65 29.6167 6.18333 30.9 7.25 31.9C8.35 32.8667 9.8 33.35 11.6 33.35C13.4667 33.35 14.9667 32.8 16.1 31.7C17.2667 30.6 17.85 29.1333 17.85 27.3C17.85 26.3333 17.6 25.4667 17.1 24.7C16.6 23.9 15.95 23.1833 15.15 22.55C14.3833 21.8833 13.3 21.05 11.9 20.05C9.43333 18.2833 7.46667 16.5167 6 14.75C4.56667 12.9833 3.85 11 3.85 8.8C3.85 7.3 4.23333 5.91667 5 4.65C5.76667 3.38333 6.83333 2.38333 8.2 1.65C9.56667 0.883332 11.0833 0.499999 12.75 0.499999C14.3833 0.499999 15.8667 0.816666 17.2 1.45C18.5333 2.08333 19.5833 2.98333 20.35 4.15C21.1167 5.28333 21.5 6.58333 21.5 8.05C21.5 9.25 21.25 10.25 20.75 11.05C20.25 11.8167 19.55 12.2 18.65 12.2C17.95 12.2 17.35 11.9667 16.85 11.5C16.35 11 16.1 10.4167 16.1 9.75C16.1 9.48333 16.1167 9.23333 16.15 9C16.1833 8.73333 16.2 8.45 16.2 8.15C16.2 7.28333 15.9 6.58333 15.3 6.05C14.7 5.48333 13.9 5.2 12.9 5.2C11.8667 5.2 11.0167 5.51666 10.35 6.15C9.71667 6.75 9.4 7.55 9.4 8.55C9.4 9.75 9.88333 10.8833 10.85 11.95C11.85 13.0167 13.3333 14.25 15.3 15.65C17.0667 16.95 18.4667 18.0667 19.5 19C20.5667 19.9333 21.4833 21.1 22.25 22.5C23.0167 23.8667 23.4 25.4333 23.4 27.2C23.4 29.2333 22.8833 31.0833 21.85 32.75C20.8167 34.3833 19.3833 35.6833 17.55 36.65C15.75 37.6167 13.75 38.1 11.55 38.1ZM36.1309 37.65C33.0975 37.65 30.6642 36.7333 28.8309 34.9C27.0309 33.0667 26.1309 30.5667 26.1309 27.4C26.1309 25.0667 26.5809 23 27.4809 21.2C28.4142 19.3667 29.6475 17.95 31.1809 16.95C32.7142 15.95 34.3642 15.45 36.1309 15.45C38.1309 15.45 39.7475 16 40.9809 17.1C42.2475 18.1667 42.8809 19.4667 42.8809 21C42.8809 22.1333 42.6142 23 42.0809 23.6C41.5475 24.2 40.9142 24.5 40.1809 24.5C39.4809 24.5 38.8975 24.2667 38.4309 23.8C37.9642 23.3333 37.7309 22.6667 37.7309 21.8C37.7309 20.6667 37.1975 20.1 36.1309 20.1C35.3642 20.1 34.6142 20.4 33.8809 21C33.1809 21.6 32.5975 22.45 32.1309 23.55C31.6975 24.65 31.4809 25.9167 31.4809 27.35C31.4809 29.15 31.9309 30.5333 32.8309 31.5C33.7309 32.4667 34.9809 32.95 36.5809 32.95C38.7475 32.95 40.6809 32.0333 42.3809 30.2C44.1142 28.3333 45.4142 26.1833 46.2809 23.75C46.4809 23.15 46.7809 22.7 47.1809 22.4C47.5809 22.0667 48.0142 21.9 48.4809 21.9C49.0142 21.9 49.4809 22.1 49.8809 22.5C50.2809 22.9 50.4809 23.4333 50.4809 24.1C50.4809 24.5 50.4142 24.8833 50.2809 25.25C48.8475 29.35 46.9142 32.45 44.4809 34.55C42.0809 36.6167 39.2975 37.65 36.1309 37.65ZM59.091 37.55C56.9577 37.55 55.2077 36.8833 53.841 35.55C52.4743 34.2167 51.791 32.5 51.791 30.4C51.791 27.6333 53.0243 23.9833 55.491 19.45L56.741 21.1C55.3743 20.9333 54.2743 20.7333 53.441 20.5C52.641 20.2333 51.7077 19.8 50.641 19.2L52.541 18.6L50.291 25.25C50.091 25.8167 49.8077 26.25 49.441 26.55C49.0743 26.8167 48.6577 26.95 48.191 26.95C47.6577 26.95 47.1743 26.75 46.741 26.35C46.3077 25.9167 46.091 25.3833 46.091 24.75C46.091 24.3833 46.1577 24.05 46.291 23.75C47.191 21.25 47.8077 19.3333 48.141 18C47.9077 17.8 47.7077 17.5167 47.541 17.15C47.3743 16.7833 47.291 16.4333 47.291 16.1C47.291 15.2667 47.541 14.5667 48.041 14C48.541 13.4333 49.1743 13.15 49.941 13.15C50.441 13.15 50.841 13.2333 51.141 13.4C51.4743 13.5667 51.791 13.8167 52.091 14.15C52.191 14.2833 52.4077 14.5667 52.741 15C53.1077 15.4333 53.541 15.7833 54.041 16.05C54.5743 16.2833 55.2077 16.4 55.941 16.4C56.3077 16.4 56.791 16.3333 57.391 16.2C57.991 16.0667 58.4077 16 58.641 16C59.341 16 59.9243 16.2333 60.391 16.7C60.891 17.1667 61.141 17.7667 61.141 18.5C61.141 18.9333 60.9077 19.7 60.441 20.8L59.741 22.3C58.8743 24.2333 58.2243 25.7833 57.791 26.95C57.3577 28.0833 57.141 29.1333 57.141 30.1C57.141 30.9667 57.3577 31.6333 57.791 32.1C58.2577 32.5667 58.9243 32.8 59.791 32.8C61.1243 32.8 62.491 31.9167 63.891 30.15C65.291 28.35 66.3744 26.3 67.141 24C67.341 23.4333 67.6077 23.0167 67.941 22.75C68.3077 22.45 68.6744 22.3 69.041 22.3C69.5077 22.3 69.9077 22.4667 70.241 22.8C70.5744 23.1333 70.741 23.5667 70.741 24.1C70.741 24.3333 70.691 24.6 70.591 24.9C69.1577 29.3 67.491 32.5167 65.591 34.55C63.7243 36.55 61.5577 37.55 59.091 37.55ZM73.4547 37.55C71.388 37.55 69.788 36.7833 68.6547 35.25C67.5214 33.7167 66.9547 31.4667 66.9547 28.5C66.9547 27.2667 67.0547 25.65 67.2547 23.65C67.488 21.65 67.738 19.9 68.0047 18.4C68.138 17.5667 68.4547 16.9 68.9547 16.4C69.488 15.9 70.1047 15.65 70.8047 15.65C71.538 15.65 72.138 15.9167 72.6047 16.45C73.0714 16.9833 73.3047 17.7 73.3047 18.6L73.0547 20.6C72.5547 24.6 72.3047 27.3333 72.3047 28.8C72.3047 30.3333 72.4547 31.4 72.7547 32C73.0547 32.5667 73.488 32.85 74.0547 32.85C74.8214 32.85 75.788 31.9833 76.9547 30.25C78.1214 28.4833 79.1214 26.4 79.9547 24C80.1214 23.5 80.3547 23.1333 80.6547 22.9C80.988 22.6333 81.338 22.5 81.7047 22.5C82.1714 22.5 82.5714 22.6833 82.9047 23.05C83.2714 23.3833 83.4547 23.8333 83.4547 24.4C83.4547 24.6333 83.4047 24.9 83.3047 25.2C81.9047 29.5333 80.388 32.6833 78.7547 34.65C77.1547 36.5833 75.388 37.55 73.4547 37.55ZM71.4547 13.9C70.588 13.9 69.8547 13.6 69.2547 13C68.6547 12.3667 68.3547 11.6167 68.3547 10.75C68.3547 9.88333 68.6547 9.15 69.2547 8.55C69.8547 7.91667 70.588 7.6 71.4547 7.6C72.3214 7.6 73.0547 7.91667 73.6547 8.55C74.288 9.15 74.6047 9.88333 74.6047 10.75C74.6047 11.6167 74.288 12.3667 73.6547 13C73.0547 13.6 72.3214 13.9 71.4547 13.9ZM89.2 37.65C86.1667 37.65 83.8667 36.45 82.3 34.05C80.7333 31.65 79.95 28.0167 79.95 23.15C79.95 18.5833 80.4833 14.5833 81.55 11.15C82.6167 7.68333 84.1 5.01666 86 3.15C87.9 1.25 90.0833 0.299999 92.55 0.299999C94.5167 0.299999 96.0833 0.883331 97.25 2.05C98.4167 3.18333 99 4.65 99 6.45C99 8.18333 98.4333 9.71667 97.3 11.05C96.1667 12.35 94.6167 13.3667 92.65 14.1C90.6833 14.8 88.5 15.15 86.1 15.15C84.1333 15.15 82.4333 14.95 81 14.55C80.3 14.3833 79.7667 14.0833 79.4 13.65C79.0667 13.1833 78.9 12.7 78.9 12.2C78.9 11.6 79.1167 11.1 79.55 10.7C79.9833 10.2667 80.55 10.05 81.25 10.05C81.5167 10.05 81.9167 10.1 82.45 10.2C84.2167 10.5333 85.7333 10.7 87 10.7C88.5 10.7 89.7833 10.4833 90.85 10.05C91.9167 9.58333 92.7167 9.03333 93.25 8.4C93.8167 7.73333 94.1 7.08333 94.1 6.45C94.1 6.01667 93.95 5.66667 93.65 5.4C93.3833 5.1 93.0167 4.95 92.55 4.95C91.1833 4.95 89.9333 5.73333 88.8 7.3C87.7 8.83333 86.8167 11.0167 86.15 13.85C85.4833 16.6833 85.15 19.9333 85.15 23.6C85.15 26.7333 85.5167 29.0667 86.25 30.6C87.0167 32.1333 88.0167 32.9 89.25 32.9C90.1167 32.9 90.9333 32.5333 91.7 31.8C92.4667 31.0333 93.0667 30.0167 93.5 28.75C93.9667 27.45 94.2 26.0333 94.2 24.5C94.2 23.3 93.9667 22.3667 93.5 21.7C93.0667 21.0333 92.4833 20.7 91.75 20.7C91.0833 20.7 90.5333 20.95 90.1 21.45C89.7 21.95 89.5 22.6167 89.5 23.45C89.5 24.3167 89.7667 25.1333 90.3 25.9C90.8667 26.6333 91.6667 27.2333 92.7 27.7C93.7667 28.1667 94.9833 28.4 96.35 28.4C97.95 28.4 99.3 28 100.4 27.2C101.5 26.4 102.317 25.25 102.85 23.75C102.983 23.35 103.217 23.05 103.55 22.85C103.883 22.65 104.25 22.55 104.65 22.55C105.117 22.55 105.517 22.7 105.85 23C106.183 23.2667 106.35 23.6667 106.35 24.2C106.35 24.5 106.317 24.7333 106.25 24.9C105.483 27.3667 104.217 29.25 102.45 30.55C100.683 31.8167 98.6667 32.45 96.4 32.45C94.4 32.45 92.5333 32.0167 90.8 31.15C89.1 30.2833 87.7333 29.1333 86.7 27.7C85.7 26.2667 85.2 24.7333 85.2 23.1C85.2 21.7333 85.5167 20.55 86.15 19.55C86.7833 18.5167 87.6167 17.7167 88.65 17.15C89.7167 16.5833 90.85 16.3 92.05 16.3C94.1167 16.3 95.8333 17.0833 97.2 18.65C98.5667 20.1833 99.25 22.3333 99.25 25.1C99.25 27.1 98.8333 29.0833 98 31.05C97.2 32.9833 96.0333 34.5667 94.5 35.8C92.9667 37.0333 91.2 37.65 89.2 37.65ZM111 37.55C108.534 37.55 106.567 36.45 105.1 34.25C103.634 32.05 102.9 28.5333 102.9 23.7C102.9 15.8 103.717 9.96667 105.35 6.2C106.984 2.43333 109.334 0.549998 112.4 0.549998C113.934 0.549998 115.184 1.08333 116.15 2.15C117.15 3.18333 117.65 4.56667 117.65 6.3C117.65 9.3 116.7 12.65 114.8 16.35C112.934 20.05 110.4 23.7333 107.2 27.4L104.65 24.8C106.217 23.0667 107.634 21.0333 108.9 18.7C110.167 16.3333 111.15 14.0667 111.85 11.9C112.584 9.73333 112.95 8.03333 112.95 6.8C112.95 5.73333 112.667 5.2 112.1 5.2C111.467 5.2 110.834 6.05 110.2 7.75C109.567 9.41667 109.05 11.7 108.65 14.6C108.25 17.5 108.05 20.7 108.05 24.2C108.05 27.2333 108.367 29.4333 109 30.8C109.667 32.1333 110.517 32.8 111.55 32.8C112.684 32.8 113.85 31.95 115.05 30.25C116.25 28.5167 117.317 26.2833 118.25 23.55C118.417 23.0167 118.667 22.6167 119 22.35C119.334 22.0833 119.684 21.95 120.05 21.95C120.484 21.95 120.85 22.1167 121.15 22.45C121.484 22.7833 121.65 23.2167 121.65 23.75C121.65 24.0833 121.617 24.35 121.55 24.55C118.95 33.2167 115.434 37.55 111 37.55ZM128.082 37.65C126.082 37.65 124.299 37.2167 122.732 36.35C121.199 35.45 119.999 34.2 119.132 32.6C118.266 31 117.832 29.15 117.832 27.05C117.832 24.95 118.249 23.0167 119.082 21.25C119.916 19.45 121.066 18.0333 122.532 17C124.032 15.9333 125.732 15.4 127.632 15.4C129.199 15.4 130.549 15.7 131.682 16.3C132.849 16.9 133.732 17.7167 134.332 18.75C134.932 19.75 135.232 20.85 135.232 22.05C135.232 23.35 134.899 24.5333 134.232 25.6C133.566 26.6667 132.632 27.5167 131.432 28.15C130.266 28.7833 128.932 29.1 127.432 29.1C125.966 29.1 124.599 28.8167 123.332 28.25C122.066 27.6833 120.666 26.8 119.132 25.6L120.682 23.35C122.516 24.6167 124.532 25.25 126.732 25.25C127.799 25.25 128.632 24.9667 129.232 24.4C129.866 23.8333 130.182 23.1667 130.182 22.4C130.182 21.7 129.949 21.1333 129.482 20.7C129.049 20.2667 128.466 20.05 127.732 20.05C126.432 20.05 125.316 20.7 124.382 22C123.449 23.3 122.982 24.9833 122.982 27.05C122.982 30.95 124.882 32.9 128.682 32.9C131.082 32.9 133.232 31.7833 135.132 29.55C135.832 28.8167 136.532 28.45 137.232 28.45C137.799 28.45 138.282 28.65 138.682 29.05C139.082 29.45 139.282 29.95 139.282 30.55C139.282 31.15 139.049 31.75 138.582 32.35C135.816 35.8833 132.316 37.65 128.082 37.65Z" fill="black"/>
</svg>
